<?xml version="1.0" standalone="no"?>
<svg xmlns:xlink="http://www.w3.org/1999/xlink" id="wave" style="transform:rotate(180deg); transition: 0.3s" viewBox="0 0 1440 490" version="1.1" xmlns="http://www.w3.org/2000/svg"><defs><linearGradient id="sw-gradient-0" x1="0" x2="0" y1="1" y2="0"><stop stop-color="rgba(255, 110, 110, 1)" offset="0%"/><stop stop-color="rgba(147, 0, 0, 1)" offset="100%"/></linearGradient></defs><path style="transform:translate(0, 0px); opacity:1" fill="url(#sw-gradient-0)" d="M0,294L60,261.3C120,229,240,163,360,179.7C480,196,600,294,720,294C840,294,960,196,1080,147C1200,98,1320,98,1440,155.2C1560,212,1680,327,1800,318.5C1920,310,2040,180,2160,171.5C2280,163,2400,278,2520,269.5C2640,261,2760,131,2880,114.3C3000,98,3120,196,3240,220.5C3360,245,3480,196,3600,171.5C3720,147,3840,147,3960,122.5C4080,98,4200,49,4320,98C4440,147,4560,294,4680,334.8C4800,376,4920,310,5040,277.7C5160,245,5280,245,5400,228.7C5520,212,5640,180,5760,147C5880,114,6000,82,6120,73.5C6240,65,6360,82,6480,147C6600,212,6720,327,6840,343C6960,359,7080,278,7200,228.7C7320,180,7440,163,7560,130.7C7680,98,7800,49,7920,32.7C8040,16,8160,33,8280,73.5C8400,114,8520,180,8580,212.3L8640,245L8640,490L8580,490C8520,490,8400,490,8280,490C8160,490,8040,490,7920,490C7800,490,7680,490,7560,490C7440,490,7320,490,7200,490C7080,490,6960,490,6840,490C6720,490,6600,490,6480,490C6360,490,6240,490,6120,490C6000,490,5880,490,5760,490C5640,490,5520,490,5400,490C5280,490,5160,490,5040,490C4920,490,4800,490,4680,490C4560,490,4440,490,4320,490C4200,490,4080,490,3960,490C3840,490,3720,490,3600,490C3480,490,3360,490,3240,490C3120,490,3000,490,2880,490C2760,490,2640,490,2520,490C2400,490,2280,490,2160,490C2040,490,1920,490,1800,490C1680,490,1560,490,1440,490C1320,490,1200,490,1080,490C960,490,840,490,720,490C600,490,480,490,360,490C240,490,120,490,60,490L0,490Z"/></svg>