<?xml version="1.0" standalone="no"?>
<svg xmlns:xlink="http://www.w3.org/1999/xlink" id="wave" style="transform:rotate(180deg); transition: 0.3s" viewBox="0 0 1440 490" version="1.1" xmlns="http://www.w3.org/2000/svg"><defs><linearGradient id="sw-gradient-0" x1="0" x2="0" y1="1" y2="0"><stop stop-color="rgba(243, 106, 62, 1)" offset="0%"/><stop stop-color="rgba(255, 179, 11, 1)" offset="100%"/></linearGradient></defs><path style="transform:translate(0, 0px); opacity:1" fill="url(#sw-gradient-0)" d="M0,245L48,261.3C96,278,192,310,288,310.3C384,310,480,278,576,245C672,212,768,180,864,147C960,114,1056,82,1152,89.8C1248,98,1344,147,1440,147C1536,147,1632,98,1728,89.8C1824,82,1920,114,2016,155.2C2112,196,2208,245,2304,245C2400,245,2496,196,2592,187.8C2688,180,2784,212,2880,236.8C2976,261,3072,278,3168,277.7C3264,278,3360,261,3456,277.7C3552,294,3648,343,3744,310.3C3840,278,3936,163,4032,138.8C4128,114,4224,180,4320,187.8C4416,196,4512,147,4608,138.8C4704,131,4800,163,4896,187.8C4992,212,5088,229,5184,228.7C5280,229,5376,212,5472,204.2C5568,196,5664,196,5760,196C5856,196,5952,196,6048,187.8C6144,180,6240,163,6336,155.2C6432,147,6528,147,6624,163.3C6720,180,6816,212,6864,228.7L6912,245L6912,490L6864,490C6816,490,6720,490,6624,490C6528,490,6432,490,6336,490C6240,490,6144,490,6048,490C5952,490,5856,490,5760,490C5664,490,5568,490,5472,490C5376,490,5280,490,5184,490C5088,490,4992,490,4896,490C4800,490,4704,490,4608,490C4512,490,4416,490,4320,490C4224,490,4128,490,4032,490C3936,490,3840,490,3744,490C3648,490,3552,490,3456,490C3360,490,3264,490,3168,490C3072,490,2976,490,2880,490C2784,490,2688,490,2592,490C2496,490,2400,490,2304,490C2208,490,2112,490,2016,490C1920,490,1824,490,1728,490C1632,490,1536,490,1440,490C1344,490,1248,490,1152,490C1056,490,960,490,864,490C768,490,672,490,576,490C480,490,384,490,288,490C192,490,96,490,48,490L0,490Z"/></svg>